<mxfile host="app.diagrams.net" agent="Mozilla/5.0 (Windows NT 10.0; Win64; x64) AppleWebKit/537.36 (KHTML, like Gecko) Chrome/129.0.0.0 Safari/537.36" version="24.7.17">
  <diagram name="Page-1" id="UTu43Lf5YJYOY3kMeYed">
    <mxGraphModel dx="1050" dy="522" grid="1" gridSize="10" guides="1" tooltips="1" connect="1" arrows="1" fold="1" page="1" pageScale="1" pageWidth="850" pageHeight="1100" math="0" shadow="0">
      <root>
        <mxCell id="0" />
        <mxCell id="1" parent="0" />
        <mxCell id="JfUJVi8zY7BiZRdPK_Z--5" value="" style="edgeStyle=orthogonalEdgeStyle;rounded=0;orthogonalLoop=1;jettySize=auto;html=1;" edge="1" parent="1" source="JfUJVi8zY7BiZRdPK_Z--1" target="JfUJVi8zY7BiZRdPK_Z--4">
          <mxGeometry relative="1" as="geometry" />
        </mxCell>
        <mxCell id="JfUJVi8zY7BiZRdPK_Z--1" value="Daily stories" style="rounded=0;whiteSpace=wrap;html=1;" vertex="1" parent="1">
          <mxGeometry x="190" y="140" width="120" height="60" as="geometry" />
        </mxCell>
        <mxCell id="JfUJVi8zY7BiZRdPK_Z--2" value="Actor" style="shape=umlActor;verticalLabelPosition=bottom;verticalAlign=top;html=1;outlineConnect=0;" vertex="1" parent="1">
          <mxGeometry x="60" y="150" width="30" height="60" as="geometry" />
        </mxCell>
        <mxCell id="JfUJVi8zY7BiZRdPK_Z--3" style="edgeStyle=orthogonalEdgeStyle;rounded=0;orthogonalLoop=1;jettySize=auto;html=1;exitX=1;exitY=0.3333333333333333;exitDx=0;exitDy=0;exitPerimeter=0;entryX=0.003;entryY=0.4;entryDx=0;entryDy=0;entryPerimeter=0;" edge="1" parent="1" source="JfUJVi8zY7BiZRdPK_Z--2" target="JfUJVi8zY7BiZRdPK_Z--1">
          <mxGeometry relative="1" as="geometry" />
        </mxCell>
        <mxCell id="JfUJVi8zY7BiZRdPK_Z--7" value="" style="edgeStyle=orthogonalEdgeStyle;rounded=0;orthogonalLoop=1;jettySize=auto;html=1;" edge="1" parent="1" source="JfUJVi8zY7BiZRdPK_Z--4" target="JfUJVi8zY7BiZRdPK_Z--6">
          <mxGeometry relative="1" as="geometry" />
        </mxCell>
        <mxCell id="JfUJVi8zY7BiZRdPK_Z--4" value="Add story" style="rounded=1;whiteSpace=wrap;html=1;" vertex="1" parent="1">
          <mxGeometry x="350" y="150" width="90" height="40" as="geometry" />
        </mxCell>
        <mxCell id="JfUJVi8zY7BiZRdPK_Z--11" value="" style="edgeStyle=orthogonalEdgeStyle;rounded=0;orthogonalLoop=1;jettySize=auto;html=1;" edge="1" parent="1" source="JfUJVi8zY7BiZRdPK_Z--6" target="JfUJVi8zY7BiZRdPK_Z--9">
          <mxGeometry relative="1" as="geometry" />
        </mxCell>
        <mxCell id="JfUJVi8zY7BiZRdPK_Z--12" value="" style="edgeStyle=orthogonalEdgeStyle;rounded=0;orthogonalLoop=1;jettySize=auto;html=1;" edge="1" parent="1" source="JfUJVi8zY7BiZRdPK_Z--6" target="JfUJVi8zY7BiZRdPK_Z--10">
          <mxGeometry relative="1" as="geometry" />
        </mxCell>
        <mxCell id="JfUJVi8zY7BiZRdPK_Z--6" value="Create story" style="rounded=0;whiteSpace=wrap;html=1;" vertex="1" parent="1">
          <mxGeometry x="520" y="140" width="120" height="60" as="geometry" />
        </mxCell>
        <mxCell id="JfUJVi8zY7BiZRdPK_Z--8" value="&lt;h1 style=&quot;margin-top: 0px;&quot;&gt;Title&lt;/h1&gt;&lt;p&gt;Lorem ipsum dolor sit amet, consectetur adipisicing elit, sed do eiusmod tempor incididunt ut lab.&lt;/p&gt;" style="text;html=1;whiteSpace=wrap;overflow=hidden;rounded=0;" vertex="1" parent="1">
          <mxGeometry x="450" y="400" width="180" height="120" as="geometry" />
        </mxCell>
        <mxCell id="JfUJVi8zY7BiZRdPK_Z--13" style="edgeStyle=orthogonalEdgeStyle;rounded=0;orthogonalLoop=1;jettySize=auto;html=1;exitX=0;exitY=0.5;exitDx=0;exitDy=0;entryX=0.5;entryY=0;entryDx=0;entryDy=0;" edge="1" parent="1" source="JfUJVi8zY7BiZRdPK_Z--9" target="JfUJVi8zY7BiZRdPK_Z--1">
          <mxGeometry relative="1" as="geometry" />
        </mxCell>
        <mxCell id="JfUJVi8zY7BiZRdPK_Z--9" value="Cancel" style="rounded=1;whiteSpace=wrap;html=1;" vertex="1" parent="1">
          <mxGeometry x="545" y="70" width="70" height="30" as="geometry" />
        </mxCell>
        <mxCell id="JfUJVi8zY7BiZRdPK_Z--14" style="edgeStyle=orthogonalEdgeStyle;rounded=0;orthogonalLoop=1;jettySize=auto;html=1;exitX=0;exitY=0.5;exitDx=0;exitDy=0;entryX=0.75;entryY=1;entryDx=0;entryDy=0;" edge="1" parent="1" source="JfUJVi8zY7BiZRdPK_Z--10" target="JfUJVi8zY7BiZRdPK_Z--1">
          <mxGeometry relative="1" as="geometry" />
        </mxCell>
        <mxCell id="JfUJVi8zY7BiZRdPK_Z--10" value="Add" style="rounded=1;whiteSpace=wrap;html=1;" vertex="1" parent="1">
          <mxGeometry x="545" y="230" width="70" height="30" as="geometry" />
        </mxCell>
      </root>
    </mxGraphModel>
  </diagram>
</mxfile>
